<svg width="180" height="40" viewBox="0 0 180 40" fill="none" xmlns="http://www.w3.org/2000/svg">
<rect width="180" height="40" fill="black" fill-opacity="0"/>
<rect width="142" height="36.6094" fill="black" fill-opacity="0" transform="translate(0 2)"/>
<rect width="141.994" height="9.43607" fill="black" fill-opacity="0" transform="translate(0.00634766 29.1733)"/>
<path d="M5.24854 37.0017H4.16516V34.3107H1.08974V37.0017H0.00634766V31.0256H1.08974V33.472H4.16516V31.0256H5.24854V37.0017Z" fill="black"/>
<path d="M6.99601 31.0257H8.0095V34.136C8.0095 34.4506 8.0095 34.8001 7.97455 35.1146C7.9396 35.4291 7.9396 35.6738 7.9396 35.7786H7.97455L11.3645 30.9907H12.6226V36.9668H11.6091V33.9264C11.6091 33.4371 11.6441 32.8779 11.679 32.2139H11.6441L8.21919 37.0367H6.96106V31.0257H6.99601Z" fill="black"/>
<path d="M16.0824 33.9263L13.6361 31.0256H14.7894L17.1658 33.9263V31.0256H18.2143V33.9263L20.5907 31.0256H21.744L19.2976 33.9263L21.8488 37.0367H20.6606L18.2143 33.9962V37.0367H17.1658V33.9962L14.7195 37.0367H13.4963L16.0824 33.9263Z" fill="black"/>
<path d="M27.9998 37.0017H26.9164V34.3107H23.841V37.0017H22.7576V31.0256H23.841V33.472H26.9164V31.0256H27.9998V37.0017Z" fill="black"/>
<path d="M29.7471 31.0257H30.7606V34.136C30.7606 34.4506 30.7606 34.8001 30.7257 35.1146C30.6907 35.4291 30.6907 35.6738 30.6558 35.7786H30.6907L34.0807 30.9907H35.3388V36.9668H34.3253V33.9264C34.3253 33.4371 34.3603 32.8779 34.3952 32.2139H34.3603L30.9354 37.0367H29.6772V31.0257H29.7471Z" fill="black"/>
<path d="M37.1212 31.0256H38.1347V34.136C38.1347 34.4505 38.1347 34.8 38.0997 35.1145C38.0648 35.429 38.0648 35.6737 38.0648 35.7785H38.0997L41.4897 30.9906H42.7478V36.9667H41.7343V33.9263C41.7343 33.437 41.7693 32.8778 41.8042 32.2138H41.7693L38.3444 37.0366H37.0862V31.0256H37.1212ZM39.9869 30.5363C39.3579 30.5363 38.8686 30.4315 38.589 30.2218C38.2745 30.0121 38.1347 29.6626 38.0997 29.1733H39.0783C39.1132 29.383 39.1482 29.5228 39.2181 29.6277C39.288 29.7325 39.3928 29.8024 39.4977 29.8723C39.6025 29.9422 39.8122 29.9422 40.0568 29.9422C40.3714 29.9422 40.581 29.8723 40.7208 29.7675C40.8606 29.6626 40.9655 29.4529 41.0004 29.1733H41.979C41.944 29.6277 41.7343 29.9771 41.4198 30.2218C41.0703 30.4315 40.616 30.5363 39.9869 30.5363Z" fill="black"/>
<path d="M52.1838 37.0017H51.1004V34.3107H48.025V37.0017H46.9416V31.0256H48.025V33.472H51.1004V31.0256H52.1838V37.0017Z" fill="black"/>
<path d="M59.8723 33.9962C59.8723 34.9747 59.5927 35.7436 59.0685 36.2678C58.5093 36.792 57.7754 37.0716 56.7619 37.0716C55.7484 37.0716 54.9796 36.792 54.4554 36.2678C53.9311 35.7436 53.6516 34.9747 53.6516 33.9962C53.6516 33.0177 53.9311 32.2488 54.4554 31.7246C54.9796 31.2004 55.7834 30.9208 56.7619 30.9208C57.7405 30.9208 58.5093 31.2004 59.0685 31.7246C59.5927 32.2837 59.8723 33.0177 59.8723 33.9962ZM54.7699 33.9962C54.7699 34.7301 54.9446 35.2893 55.2592 35.6737C55.5737 36.0581 56.0979 36.2329 56.727 36.2329C57.391 36.2329 57.8453 36.0581 58.1948 35.6737C58.5093 35.2893 58.6841 34.7301 58.6841 33.9962C58.6841 33.2623 58.5093 32.7031 58.1948 32.3187C57.8803 31.9343 57.391 31.7595 56.727 31.7595C56.063 31.7595 55.5737 31.9343 55.2592 32.3187C54.9446 32.7031 54.7699 33.2623 54.7699 33.9962Z" fill="black"/>
<path d="M61.3052 31.0256H63.2972C64.2059 31.0256 64.8699 31.1305 65.2892 31.3751C65.7086 31.6198 65.9183 32.0042 65.9183 32.5284C65.9183 32.8779 65.8135 33.1575 65.6038 33.4021C65.3941 33.6467 65.1145 33.7865 64.7301 33.8564V33.8914C65.1844 33.9613 65.5339 34.136 65.7785 34.3457C65.9882 34.5903 66.093 34.9049 66.093 35.2893C66.093 35.8135 65.8834 36.2329 65.464 36.5474C65.0446 36.8619 64.4505 37.0017 63.7166 37.0017H61.3052V31.0256ZM62.3886 33.5069H63.437C63.8913 33.5069 64.2408 33.437 64.4505 33.2973C64.6602 33.1575 64.765 32.9478 64.765 32.6332C64.765 32.3537 64.6602 32.144 64.4155 32.0391C64.1709 31.9343 63.8214 31.8644 63.3322 31.8644H62.3886V33.5069ZM62.3886 34.2758V36.163H63.5418C63.9962 36.163 64.3456 36.0931 64.5903 35.9184C64.8349 35.7786 64.9398 35.499 64.9398 35.1844C64.9398 34.8699 64.8349 34.6253 64.5903 34.4855C64.3456 34.3457 63.9962 34.2758 63.5069 34.2758H62.3886Z" fill="black"/>
<path d="M71.4051 31.0256V31.8644H68.5394V37.0017H67.456V31.0256H71.4051Z" fill="black"/>
<path d="M78.3948 33.9962C78.3948 34.9747 78.1152 35.7436 77.5909 36.2678C77.0318 36.792 76.2979 37.0716 75.2844 37.0716C74.2709 37.0716 73.502 36.792 72.9778 36.2678C72.4536 35.7436 72.174 34.9747 72.174 33.9962C72.174 33.0177 72.4536 32.2488 72.9778 31.7246C73.502 31.2004 74.3058 30.9208 75.2844 30.9208C76.2629 30.9208 77.0318 31.2004 77.5909 31.7246C78.1152 32.2837 78.3948 33.0177 78.3948 33.9962ZM73.3273 33.9962C73.3273 34.7301 73.502 35.2893 73.8166 35.6737C74.1311 36.0581 74.6553 36.2329 75.2844 36.2329C75.9484 36.2329 76.4027 36.0581 76.7522 35.6737C77.0667 35.2893 77.2415 34.7301 77.2415 33.9962C77.2415 33.2623 77.0667 32.7031 76.7522 32.3187C76.4377 31.9343 75.9484 31.7595 75.2844 31.7595C74.6204 31.7595 74.1311 31.9343 73.8166 32.3187C73.4671 32.7031 73.3273 33.2623 73.3273 33.9962Z" fill="black"/>
<path d="M84.231 32.8429C84.231 33.472 83.9864 33.9613 83.532 34.2758C83.0777 34.6253 82.4137 34.7651 81.575 34.7651H80.876V37.0017H79.7926V31.0256H81.7147C82.5535 31.0256 83.1826 31.1654 83.6019 31.48C84.0213 31.7945 84.231 32.2488 84.231 32.8429ZM80.9109 33.9263H81.5051C82.0642 33.9263 82.4836 33.8215 82.7282 33.6467C82.9729 33.472 83.1127 33.1924 83.1127 32.8429C83.1127 32.4935 83.0078 32.2488 82.7632 32.0741C82.5185 31.8993 82.1691 31.8294 81.6798 31.8294H80.9109V33.9263Z" fill="black"/>
<path d="M91.4652 33.9962C91.4652 34.9747 91.1857 35.7436 90.6614 36.2678C90.1023 36.792 89.3684 37.0716 88.3549 37.0716C87.3414 37.0716 86.5725 36.792 86.0483 36.2678C85.5241 35.7436 85.2445 34.9747 85.2445 33.9962C85.2445 33.0177 85.5241 32.2488 86.0483 31.7246C86.5725 31.2004 87.3763 30.9208 88.3549 30.9208C89.3334 30.9208 90.1023 31.2004 90.6614 31.7246C91.2206 32.2837 91.4652 33.0177 91.4652 33.9962ZM86.3978 33.9962C86.3978 34.7301 86.5725 35.2893 86.8871 35.6737C87.2016 36.0581 87.7258 36.2329 88.3549 36.2329C89.0189 36.2329 89.4732 36.0581 89.8227 35.6737C90.1372 35.2893 90.312 34.7301 90.312 33.9962C90.312 33.2623 90.1372 32.7031 89.8227 32.3187C89.5082 31.9343 89.0189 31.7595 88.3549 31.7595C87.6909 31.7595 87.2016 31.9343 86.8871 32.3187C86.5725 32.7031 86.3978 33.2623 86.3978 33.9962Z" fill="black"/>
<path d="M92.0942 36.163H92.6185C93.0728 35.4291 93.4223 34.6253 93.7368 33.7167C94.0513 32.808 94.2261 31.8994 94.296 30.9907H97.7209V36.1281H98.5946V38.6094H97.5461V36.9668H93.1427V38.6094H92.0942V36.163ZM95.2046 31.8644C95.1347 32.4935 94.96 33.1924 94.6804 34.0312C94.4008 34.835 94.0863 35.5689 93.7368 36.163H96.6375V31.8644H95.2046Z" fill="black"/>
<path d="M107.996 33.9962C107.996 34.9747 107.716 35.7436 107.192 36.2678C106.633 36.792 105.899 37.0716 104.885 37.0716C103.872 37.0716 103.103 36.792 102.579 36.2678C102.054 35.7436 101.775 34.9747 101.775 33.9962C101.775 33.0177 102.054 32.2488 102.579 31.7246C103.103 31.2004 103.907 30.9208 104.885 30.9208C105.864 30.9208 106.633 31.2004 107.192 31.7246C107.716 32.2837 107.996 33.0177 107.996 33.9962ZM102.893 33.9962C102.893 34.7301 103.068 35.2893 103.383 35.6737C103.697 36.0581 104.221 36.2329 104.85 36.2329C105.514 36.2329 105.969 36.0581 106.318 35.6737C106.633 35.2893 106.807 34.7301 106.807 33.9962C106.807 33.2623 106.633 32.7031 106.318 32.3187C106.004 31.9343 105.514 31.7595 104.85 31.7595C104.186 31.7595 103.697 31.9343 103.383 32.3187C103.068 32.7031 102.893 33.2623 102.893 33.9962Z" fill="black"/>
<path d="M114.239 36.9843H113.155V34.2933H110.08V36.9843H108.996V31.0082H110.08V33.4545H113.155V31.0082H114.239V36.9843Z" fill="black"/>
<path d="M121.416 37.0017H120.332V31.8644H118.445C118.2 33.6118 118.026 34.8 117.886 35.4291C117.746 36.0581 117.536 36.5125 117.292 36.7571C117.047 37.0017 116.698 37.1066 116.243 37.1066C116.034 37.1066 115.824 37.0716 115.614 37.0017V36.1979C115.789 36.2678 115.964 36.3028 116.104 36.3028C116.313 36.3028 116.488 36.1979 116.628 35.9533C116.768 35.7087 116.872 35.1844 117.047 34.3806C117.187 33.5768 117.362 32.4585 117.571 31.0256H121.451V37.0017H121.416Z" fill="black"/>
<path d="M127.322 37.0018L126.658 35.3243H124.107L123.443 37.0018H122.289L124.771 30.9907H125.959L128.44 37.0018H127.322ZM126.378 34.4855L125.749 32.8779C125.714 32.7731 125.644 32.5983 125.575 32.3537C125.505 32.1091 125.435 31.9343 125.4 31.8295C125.33 32.179 125.19 32.5284 125.05 32.9478L124.456 34.5205H126.378V34.4855Z" fill="black"/>
<path d="M129.349 31.0256H130.362V34.136C130.362 34.4505 130.362 34.8 130.327 35.1145C130.293 35.429 130.293 35.6737 130.293 35.7785H130.327L133.717 30.9906H134.976V36.9667H133.962V33.9263C133.962 33.437 133.997 32.8778 134.032 32.2138H133.997L130.572 37.0366H129.314V31.0256H129.349ZM132.215 30.5363C131.586 30.5363 131.096 30.4315 130.817 30.2218C130.502 30.0121 130.362 29.6626 130.327 29.1733H131.306C131.341 29.383 131.376 29.5228 131.446 29.6277C131.516 29.7325 131.621 29.8024 131.725 29.8723C131.83 29.9422 132.04 29.9422 132.285 29.9422C132.599 29.9422 132.809 29.8723 132.949 29.7675C133.088 29.6626 133.193 29.4529 133.228 29.1733H134.207C134.172 29.6277 133.962 29.9771 133.648 30.2218C133.298 30.4315 132.844 30.5363 132.215 30.5363Z" fill="black"/>
<path d="M142 37.0017H140.917V34.3107H137.841V37.0017H136.758V31.0256H137.841V33.472H140.917V31.0256H142V37.0017Z" fill="black"/>
<rect width="24" height="24" fill="black" fill-opacity="0" transform="translate(67 2)"/>
<path d="M91 2H67V26H91V2Z" fill="#0086E6"/>
<path d="M90.9656 2H78.9828V13.9828H90.9656V2Z" fill="#00B9F2"/>
<path d="M78.9828 13.9827H67V25.9654H78.9828V13.9827Z" fill="#005FAD"/>
<path d="M106.586 16.1034H99.3103V25.9655H96V2H107.724C114.103 2 115.897 5.65517 115.897 9.03448C115.897 11.7241 114.414 14.8276 110.172 15.6897L116.724 26H112.862L106.586 16.1034ZM99.3448 13.3793H107.241C111.207 13.3793 112.448 11.2759 112.448 9.03448C112.448 6.7931 111.207 4.7931 107.276 4.7931H99.3448V13.3793Z" fill="#005FAD"/>
<path d="M123.31 2V16.3103C123.31 20.5862 126.103 23.7931 131 23.7931C135.897 23.7931 138.655 20.6207 138.655 16.3103V2H142V16.4828C142 22.4138 138.034 26.6552 131 26.6552C123.897 26.6552 120 22.4483 120 16.4828V2H123.31Z" fill="#005FAD"/>
<path d="M0 2H9.03448L18.931 13.1954C19.7586 14.2568 20.4483 15.1127 20.9655 16.174H21.1379V12.4422V2H29V26H20.5172L10.1724 14.8046C9.58621 14.0856 8.44828 12.6134 8.10345 11.7575H7.93103V15.4551V26H0V2Z" fill="#005FAD"/>
<path d="M33 2H42.0345L51.931 13.1954C52.7586 14.2568 53.4483 15.1127 53.9655 16.174H54.1379V12.4422V2H62V26H53.4828L43.1379 14.8046C42.5517 14.0856 41.4138 12.6134 41.069 11.7575H40.8966V15.4551V26H33V2Z" fill="#005FAD"/>
</svg>
